<svg height="511pt" viewBox="-15 0 511 511.9989" width="511pt" xmlns="http://www.w3.org/2000/svg"><path d="m.5 257.726562c0 49.875 12.574219 78.75 22.675781 101.953126 11.632813 26.710937 20.035157 46.011718 6.277344 85.910156-4.304687 12.476562 9.585937 24.097656 21.089844 17.46875 13.914062-8.019532 33.964843-22.570313 50.472656-46.371094 14.539063-20.957031 23.726563-45.191406 27.449219-72.3125 12.933594 21.339844 30.953125 39.585938 52.949218 52.953125-3.617187 41.480469-24.527343 75.460937-36.964843 92.347656-7.25 9.835938 1.324219 24.042969 13.421875 22.152344 37.484375-5.847656 61.992187-24.226563 75.949218-38.617187 9.957032-10.261719 13.882813-25.199219 10.242188-38.972657-1.929688-7.308593-2.160156-15.089843-.632812-22.492187 3.3125-16.25 14.519531-29.632813 29.984374-35.800782 31.398438-12.519531 67.1875 11.632813 67.328126 45.449219.070312 14.015625 7.308593 26.929688 19.367187 34.542969 20.511719 12.949219 53.019531 30.195312 91.390625 38.796875 4.375.980469 8.746094-2.242187 9.113281-6.703125 4.011719-48.582031 1.191407-87.953125-8.375-117.019531-7.425781-22.558594-16.429687-30.582031-17.433593-31.421875-1.097657-.921875-2.4375-1.511719-3.859376-1.695313-27.75-3.578125-75.136718-16.414062-80.699218-62.128906-.152344-1.265625 1.027344-2.328125 2.273437-1.945313 20.855469 6.46875 38.320313 10.097657 50.507813 10.488282 5.382812.175781 10.398437 1.976562 14.503906 5.207031 0 0 30.402344 23.953125 30.410156 23.960937 10.515625 8.28125 26.550782 2.382813 29.253906-10.683593 8.0625-38.941407 6.195313-77.582031-5.554687-114.851563-9.640625-30.585937-23.851563-53.546875-34.074219-67.421875-7.402344-10.042969-23.390625-8.191406-28.371094 3.207031-6.554687 14.992188-14.675781 28.222657-23.675781 39.859376-10.871093-13.386719-23.773437-24.777344-38.089843-33.84375 0 0 32.328124-69.277344 32.355468-69.34375 7.125-15.269532-.167968-33.824219-15.675781-40.261719-31.445313-13.054688-66.03125-20.019531-100.03125-20.136719-19.730469-.0703125-39.683594 2.101562-59.015625 6.476562-4.039062.914063-6.574219 4.929688-5.660156 8.96875.914062 4.039063 4.929687 6.574219 8.972656 5.660157 18.269531-4.121094 36.9375-6.105469 55.660156-6.105469 32.050782.113281 64.667969 6.679688 94.320313 18.992188 7.757812 3.21875 11.394531 12.4375 7.835937 20.066406l-31.816406 68.183594c-17.582031-8.917969-36.765625-14.445313-56.4375-16.296876-4.914062-.449218-9.828125-.699218-14.765625-.699218-38.046875 0-75.566406 14.078125-104.121094 39.21875-28.441406 25.046875-47.167969 60.164062-52.027343 97.753906-.53125 4.105469 2.367187 7.867188 6.472656 8.398438 4.035156.523437 7.878906-2.445313 8.402344-6.476563 4.398437-34.011719 21.332031-65.757813 47.066406-88.414063 25.605468-22.550781 59.136718-35.296874 93.257812-35.464843 7.457032-.039063 14.902344.496093 22.273438 1.605469 35.863281 5.464843 68.683594 24.53125 91.1875 53.453124-10.480469 11.582032-22.292969 21.902344-34.988282 30.988282-44.78125 31.769531-91.457031 41.28125-95.839843 42.117187-3.019531.578125-5.519531 2.511719-6.3125 5.574219-10.144531 39.238281-2.421875 69.75 5.839843 88.433594 3.78125 8.554687 8.53125 16.726562 14.246094 24.136718-15.359375 9.167969-26.265625 24.347657-29.894531 42.167969-1.972656 9.675781-1.699219 19.785157.824219 29.332031 2.304687 8.722657-.1875 18.1875-6.507813 24.703126-12.066406 12.4375-33.066406 28.246093-65.101562 33.839843 14.015625-19.480469 36.214843-57.148437 38.765625-102.972656.15625-2.84375-1.3125-5.53125-3.789063-6.9375-29.660156-16.839844-51.800781-43.265625-63.308593-74.285156-4.742188-12.730469-7.625-26.199219-8.558594-39.753907-.265625-3.875-3.441406-6.855468-7.238282-6.976562-4.378906-.148438-8.039062 3.636719-7.738281 8.011719 1.007813 14.59375 4.046875 29.003906 9.035157 42.753906.082031.230469.15625.457031.238281.6875-.492188 78.75-44.433594 116.585937-71.402344 132.398437 15.199219-44.804687 4.894531-68.472656-7.023437-95.84375-10.039063-23.058593-21.417969-49.191406-21.429688-95.890624 1.273438-65.070313 27.6875-126.105469 74.390625-171.867188 25.109375-24.609375 54.332031-43.246094 86.847656-55.386719 3.878907-1.449219 5.851563-5.769531 4.402344-9.648437-1.449219-3.882813-5.773437-5.855469-9.652344-4.402344-34.492187 12.878906-65.476562 32.636719-92.097656 58.722656-49.542969 48.546875-77.558594 113.3125-78.890625 182.363282zm422.4375-127.992187c.421875-.96875 1.839844-1.273437 2.550781-.3125 16.96875 23.027344 54.539063 85.714844 37.019531 170.332031-.480468 2.320313-3.359374 3.457032-5.285156 1.941406l-30.410156-23.960937c-6.636719-5.226563-14.699219-8.136719-23.304688-8.414063-7.574218-.246093-21.800781-2.148437-46.546874-9.824218-11.429688-3.546875-23.046876 6.238281-21.605469 18.082031 1.382812 11.382813 6.019531 28.101563 20.25 43.101563 15.765625 16.628906 39.554687 27.296874 70.730469 31.730468 5.398437 6.582032 25.800781 37.660156 19.976562 125.621094-32.601562-8.617188-60.222656-23.425781-78.199219-34.777344-7.703125-4.863281-12.328125-13.0625-12.371093-21.925781-.167969-34.382813-29.816407-63.847656-64.160157-63.847656-6.417969 0-12.707031.9375-18.761719 2.789062-.039062-.046875-.074218-.089843-.113281-.136719-10-11.941406-16.910156-26.371093-20.699219-41.4375-4.648437-18.484374-4.21875-37.886718-.039062-56.417968 19.164062-4.226563 89.34375-23.144532 139.113281-81.648438 12.988281-15.269531 23.824219-32.527344 31.855469-50.894531zm0 0"/></svg>